<svg width="253" height="76" viewBox="0 0 253 76" fill="none" xmlns="http://www.w3.org/2000/svg">
<g clip-path="url(#clip0_32_34)">
<path d="M24.2722 14.4355C24.2722 26.9032 24.2722 27.2394 24.7895 27.3946C25.0482 27.4722 25.5914 27.9119 25.9535 28.3258L26.6002 29.1277V39.5778V50.0278H28.0229H29.4455V39.526V29.0242L30.325 28.1447C30.8165 27.6533 31.4372 27.2653 31.7476 27.2653C32.2908 27.2653 32.2908 27.1877 32.2908 21.7557C32.2908 10.4779 31.5148 6.90832 28.4367 3.64914C27.6607 2.82141 25.3586 1.65741 24.5309 1.65741C24.3757 1.65741 24.2722 6.41685 24.2722 14.4355Z" fill="#424242"/>
<path d="M17.9349 13.2715C17.8573 13.4267 17.6503 14.9528 17.521 16.6859C17.2365 19.8933 17.521 24.989 18.09 27.1101C18.3746 28.1965 18.1418 28.7397 17.4693 28.481C16.4346 28.093 15.7362 23.825 15.7362 17.7464C15.7362 13.6336 15.7103 13.2715 15.2965 13.3491C14.6239 13.4784 14.417 15.1339 14.3653 20.7987C14.3394 24.8338 14.417 26.1789 14.7791 27.4722C15.3223 29.5157 15.3223 29.3864 14.6498 29.2829C14.1842 29.2312 13.9255 28.8432 13.4082 27.3946C12.7874 25.6616 12.7615 25.3512 12.7615 19.4277C12.7615 13.944 12.7098 13.2974 12.3477 13.2974C12.0373 13.2974 11.8562 13.7112 11.6493 14.7718C11.132 17.3584 10.7957 22.1179 10.9768 24.032C11.4941 29.8519 13.0978 32.4386 17.1847 34.0165C19.642 34.9477 21.0906 36.2668 22.0476 38.3879C23.0047 40.509 23.2375 42.0868 23.2375 46.3289V50.0537L24.2204 49.9761L25.1775 49.8985L25.2551 47.3119C25.4103 41.8282 24.6602 38.0775 22.8495 35.3615C22.0476 34.1717 21.9442 33.8095 21.9442 32.361C21.9442 31.0159 21.8148 30.5245 21.2975 29.7485C19.5903 27.2394 19.1247 24.9373 18.8919 18.1085C18.7626 14.7718 18.6074 13.168 18.4004 13.1163C18.2452 13.0646 18.0383 13.1422 17.9349 13.2715Z" fill="#424242"/>
<path d="M36.947 22.7904C35.8606 23.2042 34.3344 24.601 33.843 25.6098C32.8859 27.6792 33.3256 30.5245 34.8518 32.1023L35.4208 32.6973L34.3862 34.0423C33.1187 35.7495 32.2651 37.4826 31.515 39.8106C31.0235 41.285 30.8942 42.3972 30.7907 45.8375L30.6873 50.0537L31.6443 49.9761L32.6272 49.8985L32.7048 46.5359C32.7824 42.4748 33.3515 39.9916 34.9035 37.1204C36.4814 34.1458 36.8952 33.8095 38.9904 33.6802C41.0856 33.5767 42.2496 32.9042 43.4136 31.1711C44.3448 29.8002 44.6293 28.1448 44.1896 26.5928C43.7757 25.1184 43.1032 24.2906 41.6288 23.3594C40.6717 22.7387 40.2061 22.6093 38.9128 22.6352C38.0334 22.6352 37.1539 22.7128 36.947 22.7904Z" fill="#424242"/>
<path d="M5.69985 35.1805C4.48412 36.0341 5.15665 38.4656 7.14837 40.4573C8.6745 41.9576 11.9078 43.82 12.063 43.3026C12.3734 42.4232 10.7697 38.5173 9.3729 36.6808C8.7521 35.8789 7.09664 34.7667 6.50171 34.7667C6.37238 34.7667 6.01025 34.9477 5.69985 35.1805Z" fill="#424242"/>
<path d="M48.4573 35.1287C46.5691 35.9305 43.9565 40.5089 43.9307 42.9921V43.5612L45.3016 42.8886C48.5349 41.259 50.449 39.2156 50.7853 36.9652C51.044 35.3097 49.9834 34.4561 48.4573 35.1287Z" fill="#424242"/>
<path d="M13.7704 35.5168C12.2701 36.4221 11.9856 38.7242 13.253 39.552C14.3912 40.3021 15.8656 39.1381 16.1759 37.224C16.2794 36.5256 16.1759 36.2152 15.6586 35.6979C14.8568 34.896 14.805 34.896 13.7704 35.5168Z" fill="#424242"/>
<path d="M40.6717 35.3616C39.9474 35.7496 39.7922 36.0859 39.7922 37.1723C39.7922 37.9741 39.9733 38.3621 40.6717 39.0605C41.6805 40.0693 42.0685 40.1469 42.8445 39.4227C44.3965 37.9741 42.4824 34.3787 40.6717 35.3616Z" fill="#424242"/>
<path d="M0.397389 38.3361C-0.637273 39.5001 0.449122 41.4143 2.49258 42.0351C3.50137 42.3196 3.65657 42.2937 4.30324 41.8281C5.38963 41.0263 5.38963 39.8881 4.27737 38.7759C3.47551 37.974 3.21684 37.8705 2.10458 37.8705C1.17338 37.8705 0.681921 37.9999 0.397389 38.3361Z" fill="#424242"/>
<path d="M51.9496 38.569C50.4235 39.8364 50.3976 41.3626 51.9237 41.9834C53.3464 42.6042 55.545 41.3108 55.9589 39.6295C56.3728 37.9223 53.5792 37.1722 51.9496 38.569Z" fill="#424242"/>
<path d="M16.4863 40.3538C15.8655 41.104 15.8655 44.0269 16.5122 45.6823C17.0554 47.1567 19.1506 49.7951 19.4869 49.4589C20.1853 48.7863 20.3405 44.3373 19.7455 42.3197C19.1506 40.328 17.3917 39.2674 16.4863 40.3538Z" fill="#424242"/>
<path d="M37.1796 40.4831C36.4294 41.2332 35.938 42.5524 35.7569 44.2855C35.5758 45.9668 36.0673 49.5105 36.4812 49.5105C36.9468 49.5105 38.4987 47.6222 39.1971 46.1996C39.7403 45.1132 39.8697 44.4148 39.8955 42.9663C39.8955 41.9316 39.7403 40.8452 39.5851 40.5089C39.1713 39.7588 37.9297 39.7329 37.1796 40.4831Z" fill="#424242"/>
<path d="M13.227 41.8281C13.4598 44.4148 14.9084 47.855 15.5033 47.2601C15.6326 47.1308 15.374 46.3807 14.9601 45.5529C14.5462 44.7511 14.1582 43.406 14.0548 42.6041C13.822 40.6641 13.6926 40.1986 13.3564 40.1986C13.1753 40.1986 13.1236 40.7417 13.227 41.8281Z" fill="#424242"/>
<path d="M42.12 41.0263C42.0941 42.2679 41.4992 44.57 40.8525 45.8116C40.2576 47.0014 40.18 47.4412 40.568 47.4412C40.9818 47.4412 42.1458 44.8804 42.5338 43.0697C42.9994 40.8452 42.9994 40.1985 42.508 40.1985C42.2493 40.1985 42.12 40.4572 42.12 41.0263Z" fill="#424242"/>
<path d="M47.8107 42.837C46.8795 43.4319 45.4827 44.1045 44.7067 44.3631C43.9307 44.5959 43.2582 44.9322 43.2064 45.1133C42.8702 46.0703 48.0952 44.0527 49.2333 42.7853C50.1387 41.7765 49.4403 41.8023 47.8107 42.837Z" fill="#424242"/>
<path d="M6.16577 42.268C6.16577 42.9664 10.77 45.3461 12.1927 45.3719C13.3567 45.3719 12.9945 44.9322 11.4425 44.4408C10.6407 44.208 9.26976 43.5354 8.36443 42.9922C6.6831 41.9834 6.16577 41.8282 6.16577 42.268Z" fill="#424242"/>
<path d="M2.07857 43.6129C0.242049 44.5441 1.89751 47.26 5.31189 48.7862C6.32068 49.2518 7.01908 49.3552 9.14014 49.3811C11.7527 49.3811 14.0806 48.9155 13.7961 48.4499C13.4598 47.9584 9.68333 45.5529 7.63988 44.5699C5.33776 43.4835 3.08737 43.0955 2.07857 43.6129Z" fill="#424242"/>
<path d="M49.8542 43.8975C47.1124 44.8287 41.7839 48.243 42.3012 48.7345C42.6116 49.0449 45.3535 49.5105 46.7761 49.5105C49.7508 49.5105 53.1134 47.8809 54.2516 45.8892C54.7172 45.0615 54.7689 44.7511 54.5361 44.3372C53.9153 43.1732 52.3633 43.0439 49.8542 43.8975Z" fill="#424242"/>
<path d="M2.02686 50.9849C2.05272 53.2094 3.32018 57.8654 4.56178 60.2451C6.2431 63.5302 9.68335 67.4102 12.9943 69.7382C15.3223 71.3678 16.3569 71.8851 19.0988 72.8421C22.1769 73.9285 24.6601 74.3424 27.8417 74.3424C31.3595 74.3424 33.2736 74.032 36.7915 72.868C45.6896 69.9451 52.9322 61.2022 53.9151 52.1489L54.0962 50.5452H28.0486C3.44951 50.5452 2.02686 50.5711 2.02686 50.9849ZM52.7253 51.8903C52.7253 51.942 52.5701 52.8991 52.3631 54.0372C51.3026 60.1158 46.2845 66.5566 39.792 70.2555C34.2307 73.4112 25.1774 73.9803 19.1246 71.5488C16.0207 70.3072 11.8044 67.5654 9.86442 65.5219C6.60523 62.0299 3.94098 56.779 3.50125 52.9249L3.37192 51.8385H28.0486C41.6285 51.8385 52.7253 51.8644 52.7253 51.8903Z" fill="#424242"/>
<path d="M4.71718 53.1836C4.63958 53.2871 4.89825 54.2441 5.26038 55.3305C9.70942 68.6001 24.1947 75.4547 36.7917 70.2555C42.1719 68.031 46.8538 63.763 49.3887 58.7708C50.0612 57.4257 51.4321 53.7268 51.4321 53.2095C51.4321 52.9508 4.87238 52.9249 4.71718 53.1836Z" fill="#424242"/>
<path d="M75.512 55.205C74.5007 55.205 73.7763 54.9863 73.339 54.549C72.9017 54.0843 72.683 53.2233 72.683 51.966C72.683 51.1187 72.765 50.039 72.929 48.727C73.1203 47.3877 73.421 45.5563 73.831 43.233C74.5417 38.9417 75.102 35.2243 75.512 32.081C75.758 30.113 75.881 28.473 75.881 27.161C75.881 25.931 75.43 25.316 74.528 25.316C73.8173 25.316 72.9563 25.685 71.945 26.423C70.961 27.1337 69.8677 28.2817 68.665 29.867C68.2823 30.3863 67.8587 30.646 67.394 30.646C67.0113 30.646 66.6697 30.4683 66.369 30.113C66.0957 29.7303 65.959 29.3067 65.959 28.842C65.959 28.4047 66.041 27.9673 66.205 27.53C66.3963 27.0653 66.697 26.546 67.107 25.972C68.419 24.1407 69.8813 22.733 71.494 21.749C73.1067 20.7377 74.7193 20.232 76.332 20.232C77.8353 20.232 78.9833 20.7103 79.776 21.667C80.596 22.6237 81.006 24.0177 81.006 25.849C81.006 26.587 80.9377 27.4617 80.801 28.473C80.6643 29.457 80.5413 30.2633 80.432 30.892C80.3227 31.5207 80.2407 31.958 80.186 32.204C81.744 27.7487 83.4933 24.6463 85.434 22.897C87.3747 21.1203 89.5067 20.232 91.83 20.232C93.6067 20.232 95.0007 20.8607 96.012 22.118C97.0507 23.3753 97.57 25.152 97.57 27.448C97.57 28.35 97.447 29.4707 97.201 30.81C98.5677 27.038 100.167 24.332 101.998 22.692C103.829 21.052 105.934 20.232 108.312 20.232C110.225 20.232 111.688 20.847 112.699 22.077C113.738 23.307 114.257 25.029 114.257 27.243C114.257 28.4457 114.079 29.908 113.724 31.63L111.223 43.356C110.95 44.7227 110.813 45.898 110.813 46.882C110.813 48.03 111.073 48.891 111.592 49.465C112.139 50.039 112.89 50.326 113.847 50.326C114.749 50.326 115.624 50.0253 116.471 49.424C117.346 48.8227 118.371 47.825 119.546 46.431C119.874 46.0483 120.243 45.857 120.653 45.857C121.008 45.857 121.282 46.021 121.473 46.349C121.692 46.677 121.801 47.128 121.801 47.702C121.801 48.768 121.541 49.6153 121.022 50.244C119.601 51.966 118.193 53.2233 116.799 54.016C115.405 54.8087 113.943 55.205 112.412 55.205C110.089 55.205 108.271 54.5217 106.959 53.155C105.647 51.761 104.991 49.9023 104.991 47.579C104.991 45.9663 105.319 43.6293 105.975 40.568L107.615 33.065C107.67 32.819 107.765 32.3817 107.902 31.753C108.039 31.1243 108.148 30.5367 108.23 29.99C108.312 29.416 108.353 28.8557 108.353 28.309C108.353 27.3523 108.162 26.6417 107.779 26.177C107.424 25.685 106.904 25.439 106.221 25.439C104.936 25.439 103.583 26.2727 102.162 27.94C100.768 29.58 99.4287 32.3133 98.144 36.14C96.8867 39.9667 95.8617 44.9413 95.069 51.064C94.8777 52.704 94.536 53.811 94.044 54.385C93.5793 54.9317 92.814 55.205 91.748 55.205C90.8187 55.205 90.1353 54.9863 89.698 54.549C89.288 54.1117 89.083 53.2917 89.083 52.089C89.083 50.9683 89.2333 49.506 89.534 47.702C89.8347 45.8707 90.2173 43.725 90.682 41.265C91.9393 34.6503 92.568 30.3863 92.568 28.473C92.568 27.4343 92.363 26.669 91.953 26.177C91.5703 25.685 90.9827 25.439 90.19 25.439C88.8507 25.439 87.4703 26.2043 86.049 27.735C84.6277 29.2383 83.2337 31.9307 81.867 35.812C80.5277 39.666 79.407 44.8867 78.505 51.474C78.3137 52.868 78.0267 53.8383 77.644 54.385C77.2887 54.9317 76.578 55.205 75.512 55.205ZM132.847 35.894C133.476 35.894 133.913 35.976 134.159 36.14C134.405 36.304 134.528 36.5773 134.528 36.96C134.528 37.616 134.173 39.953 133.462 43.971C132.834 47.825 132.465 50.1073 132.355 50.818C131.344 57.8427 129.95 63.405 128.173 67.505C126.397 71.605 124.032 73.655 121.08 73.655C119.686 73.655 118.552 73.2177 117.677 72.343C116.803 71.4957 116.365 70.375 116.365 68.981C116.365 67.6963 116.652 66.3843 117.226 65.045C117.828 63.7057 118.921 62.1613 120.506 60.412C122.119 58.69 124.388 56.7083 127.312 54.467L127.435 53.524C127.627 52.5127 127.845 51.064 128.091 49.178C127.545 51.146 126.779 52.6493 125.795 53.688C124.811 54.6993 123.773 55.205 122.679 55.205C121.449 55.205 120.438 54.6447 119.645 53.524C118.88 52.376 118.497 50.9547 118.497 49.26C118.497 47.21 118.634 45.3377 118.907 43.643C119.181 41.921 119.632 40.1033 120.26 38.19C120.534 37.37 120.916 36.7823 121.408 36.427C121.9 36.0717 122.679 35.894 123.745 35.894C124.347 35.894 124.757 35.9897 124.975 36.181C125.221 36.3723 125.344 36.6593 125.344 37.042C125.344 37.2607 125.194 37.9987 124.893 39.256C124.62 40.2673 124.401 41.183 124.237 42.003C124.019 43.1237 123.827 44.2033 123.663 45.242C123.499 46.2533 123.417 47.087 123.417 47.743C123.417 48.7817 123.704 49.301 124.278 49.301C124.688 49.301 125.194 48.891 125.795 48.071C126.424 47.251 127.08 46.0073 127.763 44.34C128.474 42.6727 129.157 40.6227 129.813 38.19C130.032 37.37 130.36 36.7823 130.797 36.427C131.262 36.0717 131.945 35.894 132.847 35.894ZM121.531 69.678C122.215 69.678 122.98 68.8853 123.827 67.3C124.675 65.7147 125.522 63.077 126.369 59.387C124.265 61.1637 122.734 62.7763 121.777 64.225C120.848 65.701 120.383 66.9857 120.383 68.079C120.383 68.5437 120.465 68.9263 120.629 69.227C120.821 69.5277 121.121 69.678 121.531 69.678ZM159.205 55.328C155.57 55.328 152.659 54.6447 150.472 53.278C148.285 51.884 147.192 49.7657 147.192 46.923C147.192 45.4197 147.452 44.2717 147.971 43.479C148.49 42.6863 149.256 42.29 150.267 42.29C151.005 42.29 151.606 42.4813 152.071 42.864C152.536 43.2467 152.768 43.7387 152.768 44.34C152.768 44.8867 152.727 45.365 152.645 45.775C152.645 45.8843 152.618 46.0757 152.563 46.349C152.536 46.6223 152.522 46.9093 152.522 47.21C152.522 48.44 153.137 49.3557 154.367 49.957C155.624 50.5583 157.374 50.859 159.615 50.859C161.938 50.859 163.756 50.449 165.068 49.629C166.38 48.7817 167.036 47.6063 167.036 46.103C167.036 45.1737 166.735 44.381 166.134 43.725C165.533 43.0417 164.781 42.4813 163.879 42.044C162.977 41.5793 161.706 41.019 160.066 40.363C157.961 39.543 156.239 38.764 154.9 38.026C153.588 37.288 152.454 36.2903 151.497 35.033C150.568 33.7483 150.103 32.163 150.103 30.277C150.103 28.309 150.622 26.5597 151.661 25.029C152.727 23.4983 154.244 22.3093 156.212 21.462C158.207 20.6147 160.544 20.191 163.223 20.191C165.218 20.191 167.05 20.4917 168.717 21.093C170.384 21.667 171.71 22.5553 172.694 23.758C173.705 24.9607 174.211 26.4367 174.211 28.186C174.211 29.908 173.951 31.2063 173.432 32.081C172.913 32.9557 172.147 33.393 171.136 33.393C170.425 33.393 169.824 33.1743 169.332 32.737C168.867 32.2997 168.635 31.7803 168.635 31.179C168.635 30.6597 168.676 30.1813 168.758 29.744C168.84 28.924 168.881 28.4047 168.881 28.186C168.881 27.038 168.321 26.1633 167.2 25.562C166.079 24.9607 164.685 24.66 163.018 24.66C160.667 24.66 158.863 25.0973 157.606 25.972C156.376 26.8193 155.761 28.022 155.761 29.58C155.761 30.6187 156.075 31.507 156.704 32.245C157.36 32.983 158.166 33.598 159.123 34.09C160.08 34.582 161.419 35.1697 163.141 35.853C165.218 36.7003 166.886 37.4657 168.143 38.149C169.4 38.8323 170.466 39.7617 171.341 40.937C172.243 42.1123 172.694 43.561 172.694 45.283C172.694 48.5083 171.464 50.9957 169.004 52.745C166.571 54.467 163.305 55.328 159.205 55.328ZM181.237 55.205C179.542 55.205 178.189 54.59 177.178 53.36C176.166 52.13 175.661 50.5173 175.661 48.522C175.661 46.3353 176.166 44.2717 177.178 42.331C178.189 40.363 179.528 38.7913 181.196 37.616C182.89 36.4133 184.681 35.812 186.567 35.812C187.168 35.812 187.564 35.935 187.756 36.181C187.974 36.3997 188.152 36.8097 188.289 37.411C188.863 37.3017 189.464 37.247 190.093 37.247C191.432 37.247 192.102 37.7253 192.102 38.682C192.102 39.256 191.897 40.6227 191.487 42.782C190.858 45.9253 190.544 48.112 190.544 49.342C190.544 49.752 190.639 50.08 190.831 50.326C191.049 50.572 191.323 50.695 191.651 50.695C192.17 50.695 192.799 50.367 193.537 49.711C194.275 49.0277 195.272 47.9343 196.53 46.431C196.858 46.0483 197.227 45.857 197.637 45.857C197.992 45.857 198.265 46.021 198.457 46.349C198.675 46.677 198.785 47.128 198.785 47.702C198.785 48.7953 198.525 49.6427 198.006 50.244C196.885 51.638 195.696 52.8133 194.439 53.77C193.181 54.7267 191.965 55.205 190.79 55.205C189.888 55.205 189.054 54.9043 188.289 54.303C187.551 53.6743 186.99 52.827 186.608 51.761C185.186 54.057 183.396 55.205 181.237 55.205ZM182.713 51.064C183.314 51.064 183.888 50.7087 184.435 49.998C184.981 49.2873 185.378 48.3443 185.624 47.169L187.141 39.625C185.993 39.6523 184.927 40.0897 183.943 40.937C182.986 41.757 182.221 42.8503 181.647 44.217C181.073 45.5837 180.786 47.0323 180.786 48.563C180.786 49.4103 180.95 50.039 181.278 50.449C181.633 50.859 182.111 51.064 182.713 51.064ZM210.991 45.857C211.347 45.857 211.62 46.021 211.811 46.349C212.03 46.677 212.139 47.128 212.139 47.702C212.139 48.7953 211.88 49.6427 211.36 50.244C210.185 51.6927 208.9 52.8817 207.506 53.811C206.14 54.7403 204.582 55.205 202.832 55.205C200.427 55.205 198.637 54.1117 197.461 51.925C196.313 49.7383 195.739 46.9093 195.739 43.438C195.739 40.1033 196.163 36.304 197.01 32.04C197.885 27.776 199.156 24.1133 200.823 21.052C202.518 17.9907 204.527 16.46 206.85 16.46C208.162 16.46 209.187 17.075 209.925 18.305C210.691 19.5077 211.073 21.2433 211.073 23.512C211.073 26.7647 210.171 30.5367 208.367 34.828C206.563 39.1193 204.117 43.3697 201.028 47.579C201.22 48.6997 201.534 49.506 201.971 49.998C202.409 50.4627 202.983 50.695 203.693 50.695C204.814 50.695 205.798 50.3807 206.645 49.752C207.493 49.096 208.572 47.989 209.884 46.431C210.212 46.0483 210.581 45.857 210.991 45.857ZM205.948 20.519C205.32 20.519 204.609 21.6533 203.816 23.922C203.024 26.1907 202.327 29.006 201.725 32.368C201.124 35.73 200.796 38.9553 200.741 42.044C202.682 38.846 204.226 35.648 205.374 32.45C206.522 29.2247 207.096 26.2863 207.096 23.635C207.096 21.5577 206.714 20.519 205.948 20.519ZM213.468 55.205C211.773 55.205 210.42 54.59 209.409 53.36C208.398 52.13 207.892 50.5173 207.892 48.522C207.892 46.3353 208.398 44.2717 209.409 42.331C210.42 40.363 211.76 38.7913 213.427 37.616C215.122 36.4133 216.912 35.812 218.798 35.812C219.399 35.812 219.796 35.935 219.987 36.181C220.206 36.3997 220.383 36.8097 220.52 37.411C221.094 37.3017 221.695 37.247 222.324 37.247C223.663 37.247 224.333 37.7253 224.333 38.682C224.333 39.256 224.128 40.6227 223.718 42.782C223.089 45.9253 222.775 48.112 222.775 49.342C222.775 49.752 222.871 50.08 223.062 50.326C223.281 50.572 223.554 50.695 223.882 50.695C224.401 50.695 225.03 50.367 225.768 49.711C226.506 49.0277 227.504 47.9343 228.761 46.431C229.089 46.0483 229.458 45.857 229.868 45.857C230.223 45.857 230.497 46.021 230.688 46.349C230.907 46.677 231.016 47.128 231.016 47.702C231.016 48.7953 230.756 49.6427 230.237 50.244C229.116 51.638 227.927 52.8133 226.67 53.77C225.413 54.7267 224.196 55.205 223.021 55.205C222.119 55.205 221.285 54.9043 220.52 54.303C219.782 53.6743 219.222 52.827 218.839 51.761C217.418 54.057 215.627 55.205 213.468 55.205ZM214.944 51.064C215.545 51.064 216.119 50.7087 216.666 49.998C217.213 49.2873 217.609 48.3443 217.855 47.169L219.372 39.625C218.224 39.6523 217.158 40.0897 216.174 40.937C215.217 41.757 214.452 42.8503 213.878 44.217C213.304 45.5837 213.017 47.0323 213.017 48.563C213.017 49.4103 213.181 50.039 213.509 50.449C213.864 50.859 214.343 51.064 214.944 51.064ZM242.608 45.857C242.908 48.0983 243.346 50.3123 243.92 52.499C244.029 52.8543 244.084 53.2233 244.084 53.606C244.084 54.836 243.332 55.451 241.829 55.451C240.981 55.451 240.325 55.2187 239.861 54.754C239.423 54.2893 239.013 53.4147 238.631 52.13L238.59 51.966C237.551 53.2507 236.608 54.1117 235.761 54.549C234.941 54.9863 233.984 55.205 232.891 55.205C231.223 55.205 229.843 54.59 228.75 53.36C227.684 52.1027 227.151 50.4763 227.151 48.481C227.151 46.2943 227.615 44.2717 228.545 42.413C229.474 40.5543 230.745 39.0373 232.358 37.862C233.97 36.6593 235.774 35.935 237.77 35.689C238.289 30.523 239.273 26.0267 240.722 22.2C242.198 18.3733 244.152 16.46 246.585 16.46C247.76 16.46 248.73 16.993 249.496 18.059C250.288 19.125 250.685 20.7377 250.685 22.897C250.685 25.9037 249.947 29.416 248.471 33.434C246.995 37.452 245.04 41.593 242.608 45.857ZM246.134 20.478C245.341 20.478 244.589 22.5007 243.879 26.546C243.195 30.5913 242.731 34.992 242.485 39.748C245.519 33.188 247.036 27.858 247.036 23.758C247.036 22.7193 246.94 21.913 246.749 21.339C246.585 20.765 246.38 20.478 246.134 20.478ZM234.326 51.064C234.872 51.064 235.392 50.859 235.884 50.449C236.403 50.039 237.059 49.2463 237.852 48.071C237.578 46.0757 237.442 44.012 237.442 41.88C237.442 41.0327 237.455 40.3767 237.483 39.912C235.979 40.3493 234.736 41.347 233.752 42.905C232.768 44.463 232.276 46.185 232.276 48.071C232.276 50.0663 232.959 51.064 234.326 51.064Z" fill="#424242"/>
</g>
<defs>
<clipPath id="clip0_32_34">
<rect width="253" height="74.6849" fill="white" transform="translate(0 0.657471)"/>
</clipPath>
</defs>
</svg>
