<svg width="288" height="288" viewBox="0 0 288 288" fill="none" xmlns="http://www.w3.org/2000/svg">
<g clip-path="url(#clip0_52_41)">
<path fill-rule="evenodd" clip-rule="evenodd" d="M288 144C288 223.529 223.529 288 144 288C64.471 288 0 223.529 0 144C0 64.471 64.471 0 144 0C223.529 0 288 64.471 288 144ZM107.854 162.014V177.11C112.465 182.765 118.279 187.322 124.872 190.449C131.465 193.576 138.672 195.195 145.969 195.188C162.994 195.188 178.004 186.541 186.84 173.401V152.241C183.816 172.098 166.668 187.312 145.969 187.312C128.825 187.312 114.118 176.878 107.854 162.014ZM179.556 121.856V115.075C179.544 113.58 179.789 112.093 180.28 110.681C171.102 101.733 158.787 96.7328 145.969 96.75C134.498 96.733 123.385 100.739 114.563 108.07L114.583 108.311L114.587 108.417V119.048C118.465 114.519 123.278 110.884 128.696 108.394C134.113 105.904 140.006 104.618 145.969 104.625C159.805 104.625 172.051 111.421 179.556 121.856ZM168.243 168.243C174.15 162.335 177.469 154.323 177.469 145.969C177.469 137.614 174.15 129.602 168.243 123.695C162.335 117.787 154.323 114.469 145.969 114.469C137.614 114.469 129.602 117.787 123.695 123.695C117.787 129.602 114.469 137.614 114.469 145.969C114.469 154.323 117.787 162.335 123.695 168.243C129.602 174.15 137.614 177.469 145.969 177.469C154.323 177.469 162.335 174.15 168.243 168.243ZM156.516 171.433C153.172 172.818 149.588 173.531 145.969 173.531C138.659 173.531 131.648 170.627 126.479 165.458C121.31 160.289 118.406 153.279 118.406 145.969C118.406 138.659 121.31 131.648 126.479 126.479C131.648 121.31 138.659 118.406 145.969 118.406C149.588 118.406 153.172 119.119 156.516 120.504C159.861 121.889 162.899 123.92 165.458 126.479C168.018 129.039 170.048 132.077 171.433 135.421C172.818 138.765 173.531 142.349 173.531 145.969C173.531 149.588 172.818 153.172 171.433 156.516C170.048 159.86 168.018 162.899 165.458 165.458C162.899 168.018 159.861 170.048 156.516 171.433ZM192.667 105.846C196.211 105.846 199.086 108.72 199.086 112.264V182.194C199.086 184.241 197.432 185.895 195.384 185.895H194.479C192.431 185.895 190.777 184.241 190.777 182.194V148.264C186.352 146.264 183.493 141.846 183.493 136.912V115.059C183.454 109.98 187.549 105.846 192.667 105.846ZM105.96 106.63C106.463 106.128 107.144 105.846 107.854 105.846C108.572 105.854 109.261 106.136 109.78 106.633C110.299 107.13 110.61 107.806 110.649 108.523V126.557C110.649 128.246 110.253 129.913 109.495 131.423C108.737 132.933 107.637 134.245 106.283 135.255C103.916 136.83 103.916 142.701 103.916 142.701V182.154C103.916 184.202 102.262 185.856 100.215 185.856H99.3094C97.2619 185.856 95.6081 184.202 95.6081 182.154V142.701C95.6081 142.701 95.6081 136.59 93.2417 135.255C90.5957 133.278 88.875 130.108 88.875 126.557V108.523C88.875 107.027 90.135 105.806 91.6706 105.846C93.1275 105.885 94.2694 107.184 94.2694 108.641V119.115C94.2694 119.863 94.86 120.493 95.6475 120.493C96.3956 120.493 97.0256 119.902 97.0256 119.115V108.523C97.0256 107.027 98.2856 105.806 99.8213 105.846C101.278 105.885 102.42 107.184 102.42 108.641V119.115C102.42 119.863 103.011 120.493 103.798 120.493C104.546 120.493 105.176 119.902 105.176 119.115V108.523C105.176 107.813 105.458 107.132 105.96 106.63Z" fill="#424242"/>
<path d="M83.02 237.145C81.2993 237.145 79.743 236.758 78.351 235.985C76.9783 235.212 75.886 234.081 75.074 232.592C74.262 231.084 73.856 229.286 73.856 227.198C73.856 224.259 74.3877 221.669 75.451 219.426C76.5337 217.183 77.9933 215.453 79.83 214.235C81.686 213.017 83.7353 212.408 85.978 212.408C87.6987 212.408 89.2453 212.795 90.618 213.568C92.01 214.341 93.112 215.482 93.924 216.99C94.736 218.479 95.142 220.267 95.142 222.355C95.142 225.294 94.6007 227.884 93.518 230.127C92.4547 232.37 90.995 234.1 89.139 235.318C87.3023 236.536 85.2627 237.145 83.02 237.145ZM83.31 233.723C84.818 233.723 86.1423 233.259 87.283 232.331C88.443 231.403 89.3323 230.117 89.951 228.474C90.5697 226.811 90.879 224.936 90.879 222.848C90.879 220.547 90.3957 218.807 89.429 217.628C88.4623 216.429 87.2153 215.83 85.688 215.83C84.1993 215.83 82.8847 216.294 81.744 217.222C80.6033 218.131 79.714 219.416 79.076 221.079C78.438 222.722 78.119 224.598 78.119 226.705C78.119 229.006 78.6023 230.755 79.569 231.954C80.5357 233.133 81.7827 233.723 83.31 233.723ZM98.8436 237.145C98.1089 237.145 97.5869 236.758 97.2776 235.985C96.9876 235.212 96.8426 233.974 96.8426 232.273C96.8426 229.76 97.2002 227.372 97.9156 225.11C98.0896 224.549 98.3699 224.143 98.7566 223.892C99.1626 223.621 99.7232 223.486 100.439 223.486C100.825 223.486 101.096 223.534 101.251 223.631C101.405 223.728 101.483 223.911 101.483 224.182C101.483 224.491 101.338 225.187 101.048 226.27C100.854 227.043 100.7 227.72 100.584 228.3C100.468 228.88 100.371 229.595 100.294 230.446C100.932 228.783 101.647 227.43 102.44 226.386C103.232 225.342 104.006 224.598 104.76 224.153C105.533 223.708 106.239 223.486 106.877 223.486C108.133 223.486 108.762 224.114 108.762 225.371C108.762 225.622 108.675 226.231 108.501 227.198C108.346 227.971 108.269 228.455 108.269 228.648C108.269 229.325 108.51 229.663 108.994 229.663C109.535 229.663 110.231 229.238 111.082 228.387C111.333 228.136 111.594 228.01 111.865 228.01C112.116 228.01 112.309 228.126 112.445 228.358C112.599 228.571 112.677 228.861 112.677 229.228C112.677 229.943 112.483 230.504 112.097 230.91C111.555 231.471 110.917 231.954 110.183 232.36C109.467 232.747 108.704 232.94 107.892 232.94C106.867 232.94 106.084 232.679 105.543 232.157C105.021 231.635 104.76 230.929 104.76 230.04C104.76 229.75 104.789 229.46 104.847 229.17C104.885 228.783 104.905 228.522 104.905 228.387C104.905 228.078 104.798 227.923 104.586 227.923C104.296 227.923 103.909 228.252 103.426 228.909C102.962 229.547 102.498 230.398 102.034 231.461C101.57 232.524 101.193 233.646 100.903 234.825C100.69 235.734 100.439 236.352 100.149 236.681C99.8779 236.99 99.4429 237.145 98.8436 237.145ZM126.454 230.533C126.705 230.533 126.899 230.649 127.034 230.881C127.189 231.113 127.266 231.432 127.266 231.838C127.266 232.611 127.082 233.211 126.715 233.636C125.922 234.603 125.052 235.434 124.105 236.13C123.158 236.807 122.22 237.145 121.292 237.145C119.823 237.145 118.701 236.285 117.928 234.564C117.116 235.589 116.401 236.275 115.782 236.623C115.183 236.971 114.477 237.145 113.665 237.145C112.486 237.145 111.509 236.71 110.736 235.84C109.982 234.951 109.605 233.8 109.605 232.389C109.605 230.842 109.934 229.412 110.591 228.097C111.248 226.763 112.147 225.68 113.288 224.849C114.448 223.998 115.743 223.496 117.174 223.341C117.541 219.59 118.237 216.391 119.262 213.742C120.306 211.074 121.669 209.74 123.351 209.74C124.182 209.74 124.869 210.117 125.41 210.871C125.971 211.625 126.251 212.766 126.251 214.293C126.251 216.458 125.719 218.991 124.656 221.891C123.593 224.791 122.172 227.768 120.393 230.823C120.47 231.944 120.635 232.747 120.886 233.23C121.157 233.713 121.495 233.955 121.901 233.955C122.423 233.955 122.955 233.723 123.496 233.259C124.037 232.795 124.762 232.022 125.671 230.939C125.903 230.668 126.164 230.533 126.454 230.533ZM123.032 212.582C122.665 212.582 122.297 213.239 121.93 214.554C121.563 215.849 121.244 217.551 120.973 219.658C120.722 221.765 120.538 223.969 120.422 226.27C122.587 221.553 123.67 217.763 123.67 214.902C123.67 214.167 123.602 213.597 123.467 213.191C123.351 212.785 123.206 212.582 123.032 212.582ZM114.68 234.216C115.047 234.216 115.415 234.071 115.782 233.781C116.149 233.472 116.613 232.911 117.174 232.099C116.981 231.055 116.884 229.885 116.884 228.59C116.884 228.126 116.903 227.372 116.942 226.328C115.879 226.657 114.989 227.372 114.274 228.474C113.578 229.557 113.23 230.765 113.23 232.099C113.23 233.51 113.713 234.216 114.68 234.216ZM137.841 230.533C138.092 230.533 138.285 230.649 138.421 230.881C138.575 231.113 138.653 231.432 138.653 231.838C138.653 232.611 138.469 233.211 138.102 233.636C137.386 234.506 136.371 235.308 135.057 236.043C133.761 236.778 132.369 237.145 130.881 237.145C128.851 237.145 127.275 236.594 126.154 235.492C125.032 234.39 124.472 232.882 124.472 230.968C124.472 229.634 124.752 228.397 125.313 227.256C125.873 226.096 126.647 225.178 127.633 224.501C128.638 223.824 129.769 223.486 131.026 223.486C132.147 223.486 133.046 223.824 133.723 224.501C134.399 225.158 134.738 226.057 134.738 227.198C134.738 228.532 134.254 229.682 133.288 230.649C132.34 231.596 130.726 232.35 128.445 232.911C128.928 233.8 129.846 234.245 131.2 234.245C132.07 234.245 133.056 233.945 134.158 233.346C135.279 232.727 136.246 231.925 137.058 230.939C137.29 230.668 137.551 230.533 137.841 230.533ZM130.533 226.328C129.817 226.328 129.208 226.744 128.706 227.575C128.222 228.406 127.981 229.412 127.981 230.591V230.649C129.121 230.378 130.02 229.972 130.678 229.431C131.335 228.89 131.664 228.261 131.664 227.546C131.664 227.179 131.557 226.889 131.345 226.676C131.151 226.444 130.881 226.328 130.533 226.328ZM148.007 227.459C148.433 227.459 148.79 227.614 149.08 227.923C149.39 228.213 149.544 228.58 149.544 229.025C149.544 229.276 149.486 229.547 149.37 229.837C149.061 230.552 148.626 231.152 148.065 231.635C147.505 232.118 146.886 232.36 146.209 232.36C145.668 232.36 145.204 232.167 144.817 231.78C144.45 231.393 144.266 230.871 144.266 230.214C144.266 229.847 144.286 229.45 144.324 229.025C144.363 228.716 144.382 228.503 144.382 228.387C144.382 228.232 144.344 228.116 144.266 228.039C144.208 227.962 144.131 227.923 144.034 227.923C143.764 227.923 143.396 228.252 142.932 228.909C142.468 229.547 142.004 230.398 141.54 231.461C141.076 232.524 140.699 233.646 140.409 234.825C140.197 235.753 139.955 236.372 139.684 236.681C139.414 236.99 138.969 237.145 138.35 237.145C137.616 237.145 137.094 236.758 136.784 235.985C136.494 235.212 136.349 233.974 136.349 232.273C136.349 229.76 136.707 227.372 137.422 225.11C137.596 224.549 137.877 224.143 138.263 223.892C138.669 223.621 139.23 223.486 139.945 223.486C140.332 223.486 140.603 223.534 140.757 223.631C140.912 223.728 140.989 223.911 140.989 224.182C140.989 224.491 140.844 225.187 140.554 226.27C140.361 227.043 140.206 227.72 140.09 228.3C139.974 228.88 139.878 229.595 139.8 230.446C140.438 228.783 141.154 227.43 141.946 226.386C142.739 225.342 143.512 224.598 144.266 224.153C145.02 223.708 145.707 223.486 146.325 223.486C146.886 223.486 147.311 223.65 147.601 223.979C147.911 224.288 148.065 224.752 148.065 225.371C148.065 225.738 147.959 226.434 147.746 227.459H148.007ZM163.661 237.145C162.945 237.145 162.433 236.99 162.124 236.681C161.814 236.352 161.66 235.743 161.66 234.854C161.66 234.255 161.718 233.53 161.834 232.679C161.95 231.828 162.153 230.543 162.443 228.822C162.481 228.59 162.636 227.652 162.907 226.009C163.177 224.346 163.419 222.606 163.632 220.789C163.825 219.242 163.922 218.082 163.922 217.309C163.922 216.439 163.603 216.004 162.965 216.004C162.481 216.004 161.872 216.265 161.138 216.787C160.422 217.29 159.649 218.102 158.818 219.223C158.547 219.59 158.247 219.774 157.919 219.774C157.648 219.774 157.406 219.648 157.194 219.397C157 219.126 156.904 218.827 156.904 218.498C156.904 218.169 156.962 217.86 157.078 217.57C157.194 217.261 157.406 216.893 157.716 216.468C158.663 215.173 159.717 214.177 160.877 213.481C162.037 212.766 163.255 212.408 164.531 212.408C165.594 212.408 166.387 212.737 166.909 213.394C167.45 214.051 167.721 215.008 167.721 216.265C167.721 217.386 167.566 219.01 167.257 221.137C168.223 218.276 169.451 216.11 170.94 214.641C172.428 213.152 174.178 212.408 176.189 212.408C177.774 212.408 178.963 212.862 179.756 213.771C180.568 214.66 180.974 215.859 180.974 217.367C180.974 218.218 180.848 219.252 180.597 220.47L178.828 228.764C178.634 229.731 178.538 230.562 178.538 231.258C178.538 232.07 178.721 232.679 179.089 233.085C179.475 233.491 180.007 233.694 180.684 233.694C181.322 233.694 181.94 233.481 182.54 233.056C183.158 232.631 183.883 231.925 184.715 230.939C184.947 230.668 185.208 230.533 185.498 230.533C185.749 230.533 185.942 230.649 186.078 230.881C186.232 231.113 186.31 231.432 186.31 231.838C186.31 232.592 186.126 233.191 185.759 233.636C184.753 234.854 183.758 235.743 182.772 236.304C181.786 236.865 180.751 237.145 179.669 237.145C178.025 237.145 176.74 236.662 175.812 235.695C174.884 234.709 174.42 233.394 174.42 231.751C174.42 231.113 174.468 230.417 174.565 229.663C174.681 228.909 174.864 227.952 175.116 226.792L176.276 221.485C176.314 221.311 176.382 221.002 176.479 220.557C176.575 220.112 176.653 219.697 176.711 219.31C176.769 218.904 176.798 218.508 176.798 218.121C176.798 217.502 176.624 217.009 176.276 216.642C175.928 216.275 175.435 216.091 174.797 216.091C173.637 216.091 172.477 216.71 171.317 217.947C170.157 219.184 169.084 221.185 168.098 223.95C167.112 226.695 166.338 230.214 165.778 234.506C165.642 235.492 165.439 236.178 165.169 236.565C164.917 236.952 164.415 237.145 163.661 237.145ZM198.745 228.097C198.996 228.097 199.189 228.223 199.325 228.474C199.46 228.725 199.528 229.044 199.528 229.431C199.528 230.359 199.247 230.91 198.687 231.084C197.527 231.49 196.251 231.722 194.859 231.78C194.491 233.404 193.766 234.709 192.684 235.695C191.601 236.662 190.373 237.145 189.001 237.145C187.841 237.145 186.845 236.865 186.014 236.304C185.202 235.743 184.583 234.999 184.158 234.071C183.732 233.143 183.519 232.138 183.519 231.055C183.519 229.586 183.8 228.281 184.361 227.14C184.921 225.98 185.695 225.081 186.681 224.443C187.667 223.786 188.759 223.457 189.958 223.457C191.427 223.457 192.606 223.969 193.496 224.994C194.404 225.999 194.936 227.246 195.091 228.735C195.999 228.677 197.082 228.484 198.339 228.155C198.493 228.116 198.629 228.097 198.745 228.097ZM189.233 234.071C189.851 234.071 190.383 233.82 190.828 233.317C191.292 232.814 191.601 232.089 191.756 231.142C191.156 230.736 190.692 230.204 190.364 229.547C190.054 228.89 189.9 228.194 189.9 227.459C189.9 227.15 189.929 226.84 189.987 226.531H189.842C189.068 226.531 188.421 226.908 187.899 227.662C187.396 228.397 187.145 229.441 187.145 230.794C187.145 231.857 187.348 232.669 187.754 233.23C188.179 233.791 188.672 234.071 189.233 234.071ZM214.693 223.457C215.756 223.457 216.288 223.795 216.288 224.472C216.288 224.704 216.21 225.023 216.056 225.429C214.49 229.083 213.011 232.031 211.619 234.274C210.923 235.376 210.294 236.13 209.734 236.536C209.173 236.942 208.535 237.145 207.82 237.145C207.046 237.145 206.466 236.845 206.08 236.246C205.712 235.647 205.48 234.661 205.384 233.288C205.345 232.785 205.306 232.031 205.268 231.026C204.668 232.689 204.117 233.965 203.615 234.854C203.131 235.724 202.648 236.323 202.165 236.652C201.701 236.981 201.14 237.145 200.483 237.145C199.69 237.145 199.062 236.836 198.598 236.217C198.153 235.598 197.873 234.622 197.757 233.288C197.525 230.581 197.409 228.213 197.409 226.183V225.168C197.428 224.511 197.592 224.066 197.902 223.834C198.211 223.583 198.714 223.457 199.41 223.457C199.912 223.457 200.28 223.573 200.512 223.805C200.763 224.018 200.889 224.385 200.889 224.907C200.889 227.13 201.024 230.021 201.295 233.578C201.933 232.225 202.522 230.929 203.064 229.692C203.605 228.455 204.233 226.869 204.949 224.936C205.161 224.356 205.413 223.969 205.703 223.776C206.012 223.563 206.37 223.457 206.776 223.457C207.317 223.457 207.723 223.573 207.994 223.805C208.264 224.018 208.4 224.385 208.4 224.907V229.402C208.4 231.335 208.409 232.727 208.429 233.578C209.318 232.031 210.043 230.688 210.604 229.547C211.184 228.406 211.831 226.869 212.547 224.936C212.759 224.356 213.04 223.969 213.388 223.776C213.736 223.563 214.171 223.457 214.693 223.457Z" fill="white"/>
</g>
<defs>
<clipPath id="clip0_52_41">
<rect width="288" height="288" fill="white"/>
</clipPath>
</defs>
</svg>
