<svg width="49" height="50" viewBox="0 0 49 50" fill="none" xmlns="http://www.w3.org/2000/svg">
<path d="M13.3333 43.4199H34.1667M23.75 43.4199C28.7228 43.4199 33.4919 41.4444 37.0082 37.9281C40.5246 34.4118 42.5 29.6427 42.5 24.6699H5C5 29.6427 6.97544 34.4118 10.4917 37.9281C14.0081 41.4444 18.7772 43.4199 23.75 43.4199Z" stroke="#BE5F22" stroke-width="4.16667" stroke-linecap="round" stroke-linejoin="round"/>
<path d="M22.4584 24.6699C21.1966 24.6816 19.9771 24.2159 19.0444 23.3661C18.1116 22.5163 17.5347 21.3453 17.4292 20.0879C17.3238 18.8305 17.6977 17.5798 18.4758 16.5865C19.254 15.5932 20.3789 14.9309 21.625 14.7324C21.4255 13.8495 21.4694 12.9291 21.752 12.0692C22.0346 11.2093 22.5453 10.4423 23.2296 9.8499C23.914 9.25751 24.7463 8.862 25.6378 8.70555C26.5293 8.5491 27.4465 8.63758 28.2917 8.96154C28.6618 8.37897 29.1484 7.87931 29.7211 7.49404C30.2937 7.10877 30.9399 6.84623 31.619 6.72293C32.2981 6.59964 32.9953 6.61828 33.6668 6.77766C34.3384 6.93705 34.9696 7.23374 35.5209 7.64904C36.4824 6.89326 37.6877 6.51614 38.9086 6.58903C40.1295 6.66193 41.2813 7.17978 42.1461 8.04461C43.0109 8.90944 43.5288 10.0613 43.6017 11.2821C43.6746 12.503 43.2975 13.7083 42.5417 14.6699C43.0121 15.2947 43.3294 16.0212 43.468 16.791C43.6066 17.5607 43.5627 18.3523 43.3398 19.102C43.1169 19.8517 42.7213 20.5386 42.1847 21.1076C41.648 21.6767 40.9854 22.1118 40.25 22.3782C40.4401 23.1281 40.4615 23.9108 40.3125 24.6699M25.8334 24.6699L34.1667 16.3365" stroke="#BE5F22" stroke-width="4.16667" stroke-linecap="round" stroke-linejoin="round"/>
<path d="M21.4584 14.774C20.3156 13.5559 18.8324 12.7102 17.2021 12.3472C15.5717 11.9843 13.8698 12.1209 12.3182 12.7393C10.7666 13.3577 9.43732 14.4291 8.50356 15.814C7.5698 17.1989 7.07489 18.833 7.08336 20.5032C7.08336 22.024 7.50003 23.4407 8.20836 24.6699" stroke="#BE5F22" stroke-width="4.16667" stroke-linecap="round" stroke-linejoin="round"/>
</svg>
